<mxfile host="app.diagrams.net" modified="2024-07-09T08:09:16.807Z" agent="Mozilla/5.0 (Macintosh; Intel Mac OS X 10_15_7) AppleWebKit/537.36 (KHTML, like Gecko) Chrome/126.0.0.0 Safari/537.36 Edg/126.0.0.0" version="24.6.2" etag="XA1JroGKNGganTy3gdHu" type="github">
  <diagram name="Page-1" id="N7xHK8N1toNeXz8DujmT">
    <mxGraphModel>
      <root>
        <mxCell id="0" />
        <mxCell id="1" parent="0" />
      </root>
    </mxGraphModel>
  </diagram>
</mxfile>
